<mxfile host="app.diagrams.net" agent="Mozilla/5.0 (Windows NT 10.0; Win64; x64) AppleWebKit/537.36 (KHTML, like Gecko) Chrome/129.0.0.0 Safari/537.36" version="24.7.17">
  <diagram id="C5RBs43oDa-KdzZeNtuy" name="Page-1">
    <mxGraphModel dx="1957" dy="771" grid="1" gridSize="10" guides="1" tooltips="1" connect="1" arrows="1" fold="1" page="1" pageScale="1" pageWidth="827" pageHeight="1169" math="0" shadow="0">
      <root>
        <mxCell id="WIyWlLk6GJQsqaUBKTNV-0" />
        <mxCell id="WIyWlLk6GJQsqaUBKTNV-1" parent="WIyWlLk6GJQsqaUBKTNV-0" />
        <mxCell id="LsBEOl2nDuF0hXu2eeSG-28" value="" style="edgeStyle=orthogonalEdgeStyle;rounded=0;orthogonalLoop=1;jettySize=auto;html=1;" edge="1" parent="WIyWlLk6GJQsqaUBKTNV-1" source="LsBEOl2nDuF0hXu2eeSG-26" target="LsBEOl2nDuF0hXu2eeSG-30">
          <mxGeometry relative="1" as="geometry">
            <mxPoint x="160" y="180" as="targetPoint" />
          </mxGeometry>
        </mxCell>
        <mxCell id="LsBEOl2nDuF0hXu2eeSG-26" value="Start" style="ellipse;whiteSpace=wrap;html=1;" vertex="1" parent="WIyWlLk6GJQsqaUBKTNV-1">
          <mxGeometry x="100" y="30" width="120" height="80" as="geometry" />
        </mxCell>
        <mxCell id="LsBEOl2nDuF0hXu2eeSG-32" style="edgeStyle=orthogonalEdgeStyle;rounded=0;orthogonalLoop=1;jettySize=auto;html=1;exitX=0.5;exitY=1;exitDx=0;exitDy=0;" edge="1" parent="WIyWlLk6GJQsqaUBKTNV-1" source="LsBEOl2nDuF0hXu2eeSG-30" target="LsBEOl2nDuF0hXu2eeSG-33">
          <mxGeometry relative="1" as="geometry">
            <mxPoint x="160" y="280" as="targetPoint" />
          </mxGeometry>
        </mxCell>
        <mxCell id="LsBEOl2nDuF0hXu2eeSG-30" value="Masukkan umur" style="rounded=1;whiteSpace=wrap;html=1;" vertex="1" parent="WIyWlLk6GJQsqaUBKTNV-1">
          <mxGeometry x="100" y="160" width="120" height="60" as="geometry" />
        </mxCell>
        <mxCell id="LsBEOl2nDuF0hXu2eeSG-31" value="" style="shape=flexArrow;endArrow=classic;html=1;rounded=0;" edge="1" parent="WIyWlLk6GJQsqaUBKTNV-1">
          <mxGeometry width="50" height="50" relative="1" as="geometry">
            <mxPoint x="60" y="180" as="sourcePoint" />
            <mxPoint x="100" y="180" as="targetPoint" />
          </mxGeometry>
        </mxCell>
        <mxCell id="LsBEOl2nDuF0hXu2eeSG-34" style="edgeStyle=orthogonalEdgeStyle;rounded=0;orthogonalLoop=1;jettySize=auto;html=1;exitX=1;exitY=0.5;exitDx=0;exitDy=0;" edge="1" parent="WIyWlLk6GJQsqaUBKTNV-1" source="LsBEOl2nDuF0hXu2eeSG-33" target="LsBEOl2nDuF0hXu2eeSG-40">
          <mxGeometry relative="1" as="geometry">
            <mxPoint x="280" y="300" as="targetPoint" />
          </mxGeometry>
        </mxCell>
        <mxCell id="LsBEOl2nDuF0hXu2eeSG-35" value="no" style="edgeLabel;html=1;align=center;verticalAlign=middle;resizable=0;points=[];" vertex="1" connectable="0" parent="LsBEOl2nDuF0hXu2eeSG-34">
          <mxGeometry x="-0.01" y="2" relative="1" as="geometry">
            <mxPoint x="-1" y="-2" as="offset" />
          </mxGeometry>
        </mxCell>
        <mxCell id="LsBEOl2nDuF0hXu2eeSG-45" style="edgeStyle=orthogonalEdgeStyle;rounded=0;orthogonalLoop=1;jettySize=auto;html=1;exitX=0.5;exitY=1;exitDx=0;exitDy=0;" edge="1" parent="WIyWlLk6GJQsqaUBKTNV-1" source="LsBEOl2nDuF0hXu2eeSG-33" target="LsBEOl2nDuF0hXu2eeSG-46">
          <mxGeometry relative="1" as="geometry">
            <mxPoint x="160" y="390" as="targetPoint" />
          </mxGeometry>
        </mxCell>
        <mxCell id="LsBEOl2nDuF0hXu2eeSG-47" value="yes" style="edgeLabel;html=1;align=center;verticalAlign=middle;resizable=0;points=[];" vertex="1" connectable="0" parent="LsBEOl2nDuF0hXu2eeSG-45">
          <mxGeometry x="-0.2" y="-2" relative="1" as="geometry">
            <mxPoint as="offset" />
          </mxGeometry>
        </mxCell>
        <mxCell id="LsBEOl2nDuF0hXu2eeSG-33" value="18 &amp;lt; umur &amp;lt; 66" style="rhombus;whiteSpace=wrap;html=1;" vertex="1" parent="WIyWlLk6GJQsqaUBKTNV-1">
          <mxGeometry x="120" y="260" width="80" height="80" as="geometry" />
        </mxCell>
        <mxCell id="LsBEOl2nDuF0hXu2eeSG-42" style="edgeStyle=orthogonalEdgeStyle;rounded=0;orthogonalLoop=1;jettySize=auto;html=1;exitX=1;exitY=0.5;exitDx=0;exitDy=0;" edge="1" parent="WIyWlLk6GJQsqaUBKTNV-1" source="LsBEOl2nDuF0hXu2eeSG-40" target="LsBEOl2nDuF0hXu2eeSG-44">
          <mxGeometry relative="1" as="geometry">
            <mxPoint x="440" y="300" as="targetPoint" />
          </mxGeometry>
        </mxCell>
        <mxCell id="LsBEOl2nDuF0hXu2eeSG-40" value="Umur tidak mencukupi" style="rounded=1;whiteSpace=wrap;html=1;" vertex="1" parent="WIyWlLk6GJQsqaUBKTNV-1">
          <mxGeometry x="260" y="270" width="90" height="50" as="geometry" />
        </mxCell>
        <mxCell id="LsBEOl2nDuF0hXu2eeSG-41" value="" style="shape=flexArrow;endArrow=classic;html=1;rounded=0;" edge="1" parent="WIyWlLk6GJQsqaUBKTNV-1">
          <mxGeometry width="50" height="50" relative="1" as="geometry">
            <mxPoint x="350" y="320" as="sourcePoint" />
            <mxPoint x="380" y="320" as="targetPoint" />
          </mxGeometry>
        </mxCell>
        <mxCell id="LsBEOl2nDuF0hXu2eeSG-44" value="END" style="ellipse;whiteSpace=wrap;html=1;" vertex="1" parent="WIyWlLk6GJQsqaUBKTNV-1">
          <mxGeometry x="440" y="255" width="120" height="80" as="geometry" />
        </mxCell>
        <mxCell id="LsBEOl2nDuF0hXu2eeSG-48" style="edgeStyle=orthogonalEdgeStyle;rounded=0;orthogonalLoop=1;jettySize=auto;html=1;exitX=0.5;exitY=1;exitDx=0;exitDy=0;" edge="1" parent="WIyWlLk6GJQsqaUBKTNV-1" source="LsBEOl2nDuF0hXu2eeSG-46" target="LsBEOl2nDuF0hXu2eeSG-49">
          <mxGeometry relative="1" as="geometry">
            <mxPoint x="160" y="500" as="targetPoint" />
          </mxGeometry>
        </mxCell>
        <mxCell id="LsBEOl2nDuF0hXu2eeSG-46" value="Menu&lt;div&gt;1. Buat akun&lt;/div&gt;&lt;div&gt;2. Login&lt;/div&gt;&lt;div&gt;3. Exit&lt;/div&gt;" style="rounded=0;whiteSpace=wrap;html=1;" vertex="1" parent="WIyWlLk6GJQsqaUBKTNV-1">
          <mxGeometry x="100" y="390" width="120" height="60" as="geometry" />
        </mxCell>
        <mxCell id="LsBEOl2nDuF0hXu2eeSG-50" style="edgeStyle=orthogonalEdgeStyle;rounded=0;orthogonalLoop=1;jettySize=auto;html=1;exitX=0.5;exitY=1;exitDx=0;exitDy=0;" edge="1" parent="WIyWlLk6GJQsqaUBKTNV-1" source="LsBEOl2nDuF0hXu2eeSG-49" target="LsBEOl2nDuF0hXu2eeSG-51">
          <mxGeometry relative="1" as="geometry">
            <mxPoint x="160" y="620" as="targetPoint" />
          </mxGeometry>
        </mxCell>
        <mxCell id="LsBEOl2nDuF0hXu2eeSG-70" value="yes" style="edgeLabel;html=1;align=center;verticalAlign=middle;resizable=0;points=[];" vertex="1" connectable="0" parent="LsBEOl2nDuF0hXu2eeSG-50">
          <mxGeometry x="-0.3167" y="3" relative="1" as="geometry">
            <mxPoint as="offset" />
          </mxGeometry>
        </mxCell>
        <mxCell id="LsBEOl2nDuF0hXu2eeSG-71" style="edgeStyle=orthogonalEdgeStyle;rounded=0;orthogonalLoop=1;jettySize=auto;html=1;exitX=1;exitY=0.5;exitDx=0;exitDy=0;" edge="1" parent="WIyWlLk6GJQsqaUBKTNV-1" source="LsBEOl2nDuF0hXu2eeSG-49" target="LsBEOl2nDuF0hXu2eeSG-73">
          <mxGeometry relative="1" as="geometry">
            <mxPoint x="410" y="530" as="targetPoint" />
          </mxGeometry>
        </mxCell>
        <mxCell id="LsBEOl2nDuF0hXu2eeSG-72" value="no" style="edgeLabel;html=1;align=center;verticalAlign=middle;resizable=0;points=[];" vertex="1" connectable="0" parent="LsBEOl2nDuF0hXu2eeSG-71">
          <mxGeometry x="-0.2116" relative="1" as="geometry">
            <mxPoint as="offset" />
          </mxGeometry>
        </mxCell>
        <mxCell id="LsBEOl2nDuF0hXu2eeSG-49" value="menu = 1" style="rhombus;whiteSpace=wrap;html=1;" vertex="1" parent="WIyWlLk6GJQsqaUBKTNV-1">
          <mxGeometry x="120" y="490" width="80" height="80" as="geometry" />
        </mxCell>
        <mxCell id="LsBEOl2nDuF0hXu2eeSG-53" style="edgeStyle=orthogonalEdgeStyle;rounded=0;orthogonalLoop=1;jettySize=auto;html=1;exitX=0.5;exitY=1;exitDx=0;exitDy=0;" edge="1" parent="WIyWlLk6GJQsqaUBKTNV-1" source="LsBEOl2nDuF0hXu2eeSG-51" target="LsBEOl2nDuF0hXu2eeSG-54">
          <mxGeometry relative="1" as="geometry">
            <mxPoint x="160" y="710" as="targetPoint" />
          </mxGeometry>
        </mxCell>
        <mxCell id="LsBEOl2nDuF0hXu2eeSG-51" value="Masukkan nama" style="rounded=1;whiteSpace=wrap;html=1;" vertex="1" parent="WIyWlLk6GJQsqaUBKTNV-1">
          <mxGeometry x="105" y="610" width="110" height="50" as="geometry" />
        </mxCell>
        <mxCell id="LsBEOl2nDuF0hXu2eeSG-52" value="" style="shape=flexArrow;endArrow=classic;html=1;rounded=0;" edge="1" parent="WIyWlLk6GJQsqaUBKTNV-1">
          <mxGeometry width="50" height="50" relative="1" as="geometry">
            <mxPoint x="65" y="630" as="sourcePoint" />
            <mxPoint x="105" y="630" as="targetPoint" />
          </mxGeometry>
        </mxCell>
        <mxCell id="LsBEOl2nDuF0hXu2eeSG-55" style="edgeStyle=orthogonalEdgeStyle;rounded=0;orthogonalLoop=1;jettySize=auto;html=1;exitX=0.5;exitY=1;exitDx=0;exitDy=0;" edge="1" parent="WIyWlLk6GJQsqaUBKTNV-1" source="LsBEOl2nDuF0hXu2eeSG-54" target="LsBEOl2nDuF0hXu2eeSG-56">
          <mxGeometry relative="1" as="geometry">
            <mxPoint x="160" y="820" as="targetPoint" />
          </mxGeometry>
        </mxCell>
        <mxCell id="LsBEOl2nDuF0hXu2eeSG-58" value="yes" style="edgeLabel;html=1;align=center;verticalAlign=middle;resizable=0;points=[];" vertex="1" connectable="0" parent="LsBEOl2nDuF0hXu2eeSG-55">
          <mxGeometry x="0.24" y="2" relative="1" as="geometry">
            <mxPoint as="offset" />
          </mxGeometry>
        </mxCell>
        <mxCell id="LsBEOl2nDuF0hXu2eeSG-54" value="nama = true" style="rhombus;whiteSpace=wrap;html=1;" vertex="1" parent="WIyWlLk6GJQsqaUBKTNV-1">
          <mxGeometry x="120" y="700" width="80" height="80" as="geometry" />
        </mxCell>
        <mxCell id="LsBEOl2nDuF0hXu2eeSG-59" style="edgeStyle=orthogonalEdgeStyle;rounded=0;orthogonalLoop=1;jettySize=auto;html=1;exitX=0.5;exitY=1;exitDx=0;exitDy=0;" edge="1" parent="WIyWlLk6GJQsqaUBKTNV-1" source="LsBEOl2nDuF0hXu2eeSG-56" target="LsBEOl2nDuF0hXu2eeSG-60">
          <mxGeometry relative="1" as="geometry">
            <mxPoint x="160.33333333333326" y="910" as="targetPoint" />
          </mxGeometry>
        </mxCell>
        <mxCell id="LsBEOl2nDuF0hXu2eeSG-56" value="Masukkan password" style="rounded=1;whiteSpace=wrap;html=1;" vertex="1" parent="WIyWlLk6GJQsqaUBKTNV-1">
          <mxGeometry x="100" y="810" width="120" height="60" as="geometry" />
        </mxCell>
        <mxCell id="LsBEOl2nDuF0hXu2eeSG-57" value="" style="shape=flexArrow;endArrow=classic;html=1;rounded=0;" edge="1" parent="WIyWlLk6GJQsqaUBKTNV-1">
          <mxGeometry width="50" height="50" relative="1" as="geometry">
            <mxPoint x="60" y="830" as="sourcePoint" />
            <mxPoint x="100" y="830" as="targetPoint" />
          </mxGeometry>
        </mxCell>
        <mxCell id="LsBEOl2nDuF0hXu2eeSG-61" style="edgeStyle=orthogonalEdgeStyle;rounded=0;orthogonalLoop=1;jettySize=auto;html=1;exitX=0.5;exitY=1;exitDx=0;exitDy=0;" edge="1" parent="WIyWlLk6GJQsqaUBKTNV-1" source="LsBEOl2nDuF0hXu2eeSG-60" target="LsBEOl2nDuF0hXu2eeSG-62">
          <mxGeometry relative="1" as="geometry">
            <mxPoint x="160.33333333333326" y="1030" as="targetPoint" />
          </mxGeometry>
        </mxCell>
        <mxCell id="LsBEOl2nDuF0hXu2eeSG-64" value="yes" style="edgeLabel;html=1;align=center;verticalAlign=middle;resizable=0;points=[];" vertex="1" connectable="0" parent="LsBEOl2nDuF0hXu2eeSG-61">
          <mxGeometry x="-0.1867" y="-1" relative="1" as="geometry">
            <mxPoint as="offset" />
          </mxGeometry>
        </mxCell>
        <mxCell id="LsBEOl2nDuF0hXu2eeSG-65" style="edgeStyle=orthogonalEdgeStyle;rounded=0;orthogonalLoop=1;jettySize=auto;html=1;exitX=1;exitY=0.5;exitDx=0;exitDy=0;" edge="1" parent="WIyWlLk6GJQsqaUBKTNV-1" source="LsBEOl2nDuF0hXu2eeSG-60" target="LsBEOl2nDuF0hXu2eeSG-66">
          <mxGeometry relative="1" as="geometry">
            <mxPoint x="260" y="950.3333333333333" as="targetPoint" />
          </mxGeometry>
        </mxCell>
        <mxCell id="LsBEOl2nDuF0hXu2eeSG-67" value="no" style="edgeLabel;html=1;align=center;verticalAlign=middle;resizable=0;points=[];" vertex="1" connectable="0" parent="LsBEOl2nDuF0hXu2eeSG-65">
          <mxGeometry x="-0.2778" y="1" relative="1" as="geometry">
            <mxPoint as="offset" />
          </mxGeometry>
        </mxCell>
        <mxCell id="LsBEOl2nDuF0hXu2eeSG-60" value="Validasi password" style="rhombus;whiteSpace=wrap;html=1;" vertex="1" parent="WIyWlLk6GJQsqaUBKTNV-1">
          <mxGeometry x="120.00333333333326" y="910" width="80" height="80" as="geometry" />
        </mxCell>
        <mxCell id="LsBEOl2nDuF0hXu2eeSG-62" value="Akun berhasil dibuat" style="rounded=1;whiteSpace=wrap;html=1;" vertex="1" parent="WIyWlLk6GJQsqaUBKTNV-1">
          <mxGeometry x="100.00333333333326" y="1040" width="120" height="60" as="geometry" />
        </mxCell>
        <mxCell id="LsBEOl2nDuF0hXu2eeSG-63" value="" style="shape=flexArrow;endArrow=classic;html=1;rounded=0;" edge="1" parent="WIyWlLk6GJQsqaUBKTNV-1">
          <mxGeometry width="50" height="50" relative="1" as="geometry">
            <mxPoint x="220" y="1080" as="sourcePoint" />
            <mxPoint x="260" y="1080" as="targetPoint" />
          </mxGeometry>
        </mxCell>
        <mxCell id="LsBEOl2nDuF0hXu2eeSG-68" style="edgeStyle=orthogonalEdgeStyle;rounded=0;orthogonalLoop=1;jettySize=auto;html=1;exitX=1;exitY=0.5;exitDx=0;exitDy=0;entryX=1;entryY=0.5;entryDx=0;entryDy=0;" edge="1" parent="WIyWlLk6GJQsqaUBKTNV-1" source="LsBEOl2nDuF0hXu2eeSG-66" target="LsBEOl2nDuF0hXu2eeSG-56">
          <mxGeometry relative="1" as="geometry" />
        </mxCell>
        <mxCell id="LsBEOl2nDuF0hXu2eeSG-66" value="Passwrord lemah" style="rounded=1;whiteSpace=wrap;html=1;" vertex="1" parent="WIyWlLk6GJQsqaUBKTNV-1">
          <mxGeometry x="270" y="925" width="80" height="50" as="geometry" />
        </mxCell>
        <mxCell id="LsBEOl2nDuF0hXu2eeSG-74" style="edgeStyle=orthogonalEdgeStyle;rounded=0;orthogonalLoop=1;jettySize=auto;html=1;exitX=0.5;exitY=1;exitDx=0;exitDy=0;" edge="1" parent="WIyWlLk6GJQsqaUBKTNV-1" source="LsBEOl2nDuF0hXu2eeSG-73" target="LsBEOl2nDuF0hXu2eeSG-75">
          <mxGeometry relative="1" as="geometry">
            <mxPoint x="473.66666666666674" y="610" as="targetPoint" />
          </mxGeometry>
        </mxCell>
        <mxCell id="LsBEOl2nDuF0hXu2eeSG-73" value="menu = 2" style="rhombus;whiteSpace=wrap;html=1;" vertex="1" parent="WIyWlLk6GJQsqaUBKTNV-1">
          <mxGeometry x="434" y="490" width="80" height="80" as="geometry" />
        </mxCell>
        <mxCell id="LsBEOl2nDuF0hXu2eeSG-77" style="edgeStyle=orthogonalEdgeStyle;rounded=0;orthogonalLoop=1;jettySize=auto;html=1;exitX=0.5;exitY=1;exitDx=0;exitDy=0;" edge="1" parent="WIyWlLk6GJQsqaUBKTNV-1" source="LsBEOl2nDuF0hXu2eeSG-75" target="LsBEOl2nDuF0hXu2eeSG-78">
          <mxGeometry relative="1" as="geometry">
            <mxPoint x="473.66666666666674" y="710" as="targetPoint" />
          </mxGeometry>
        </mxCell>
        <mxCell id="LsBEOl2nDuF0hXu2eeSG-75" value="masukan nama" style="rounded=1;whiteSpace=wrap;html=1;" vertex="1" parent="WIyWlLk6GJQsqaUBKTNV-1">
          <mxGeometry x="420" y="615" width="106.33" height="45" as="geometry" />
        </mxCell>
        <mxCell id="LsBEOl2nDuF0hXu2eeSG-76" value="" style="shape=flexArrow;endArrow=classic;html=1;rounded=0;" edge="1" parent="WIyWlLk6GJQsqaUBKTNV-1">
          <mxGeometry width="50" height="50" relative="1" as="geometry">
            <mxPoint x="380" y="630" as="sourcePoint" />
            <mxPoint x="420" y="630" as="targetPoint" />
          </mxGeometry>
        </mxCell>
        <mxCell id="LsBEOl2nDuF0hXu2eeSG-80" style="edgeStyle=orthogonalEdgeStyle;rounded=0;orthogonalLoop=1;jettySize=auto;html=1;exitX=0.5;exitY=1;exitDx=0;exitDy=0;" edge="1" parent="WIyWlLk6GJQsqaUBKTNV-1" source="LsBEOl2nDuF0hXu2eeSG-78" target="LsBEOl2nDuF0hXu2eeSG-82">
          <mxGeometry relative="1" as="geometry">
            <mxPoint x="473" y="790" as="targetPoint" />
          </mxGeometry>
        </mxCell>
        <mxCell id="LsBEOl2nDuF0hXu2eeSG-78" value="Masukkan password" style="rounded=1;whiteSpace=wrap;html=1;" vertex="1" parent="WIyWlLk6GJQsqaUBKTNV-1">
          <mxGeometry x="420" y="700" width="106" height="40" as="geometry" />
        </mxCell>
        <mxCell id="LsBEOl2nDuF0hXu2eeSG-79" value="" style="shape=flexArrow;endArrow=classic;html=1;rounded=0;" edge="1" parent="WIyWlLk6GJQsqaUBKTNV-1">
          <mxGeometry width="50" height="50" relative="1" as="geometry">
            <mxPoint x="380" y="710" as="sourcePoint" />
            <mxPoint x="420" y="710" as="targetPoint" />
          </mxGeometry>
        </mxCell>
        <mxCell id="LsBEOl2nDuF0hXu2eeSG-83" style="edgeStyle=orthogonalEdgeStyle;rounded=0;orthogonalLoop=1;jettySize=auto;html=1;exitX=0.5;exitY=1;exitDx=0;exitDy=0;" edge="1" parent="WIyWlLk6GJQsqaUBKTNV-1" source="LsBEOl2nDuF0hXu2eeSG-82" target="LsBEOl2nDuF0hXu2eeSG-84">
          <mxGeometry relative="1" as="geometry">
            <mxPoint x="473" y="930" as="targetPoint" />
          </mxGeometry>
        </mxCell>
        <mxCell id="LsBEOl2nDuF0hXu2eeSG-85" value="yes" style="edgeLabel;html=1;align=center;verticalAlign=middle;resizable=0;points=[];" vertex="1" connectable="0" parent="LsBEOl2nDuF0hXu2eeSG-83">
          <mxGeometry x="-0.3715" y="-3" relative="1" as="geometry">
            <mxPoint as="offset" />
          </mxGeometry>
        </mxCell>
        <mxCell id="LsBEOl2nDuF0hXu2eeSG-82" value="nama &amp;amp; password = DataUser" style="rhombus;whiteSpace=wrap;html=1;" vertex="1" parent="WIyWlLk6GJQsqaUBKTNV-1">
          <mxGeometry x="433" y="800" width="80" height="80" as="geometry" />
        </mxCell>
        <mxCell id="LsBEOl2nDuF0hXu2eeSG-86" style="edgeStyle=orthogonalEdgeStyle;rounded=0;orthogonalLoop=1;jettySize=auto;html=1;exitX=0.5;exitY=1;exitDx=0;exitDy=0;" edge="1" parent="WIyWlLk6GJQsqaUBKTNV-1" source="LsBEOl2nDuF0hXu2eeSG-84" target="LsBEOl2nDuF0hXu2eeSG-87">
          <mxGeometry relative="1" as="geometry">
            <mxPoint x="473" y="1110" as="targetPoint" />
          </mxGeometry>
        </mxCell>
        <mxCell id="LsBEOl2nDuF0hXu2eeSG-84" value="Menu:&lt;div&gt;1. Buat Pinjaman&lt;/div&gt;&lt;div&gt;2. Bayar cicilan&lt;/div&gt;&lt;div&gt;3. Informasi cicilan&lt;/div&gt;&lt;div&gt;4. Exit&lt;/div&gt;" style="rounded=0;whiteSpace=wrap;html=1;" vertex="1" parent="WIyWlLk6GJQsqaUBKTNV-1">
          <mxGeometry x="410" y="950" width="126" height="100" as="geometry" />
        </mxCell>
        <mxCell id="LsBEOl2nDuF0hXu2eeSG-89" style="edgeStyle=orthogonalEdgeStyle;rounded=0;orthogonalLoop=1;jettySize=auto;html=1;exitX=0.5;exitY=1;exitDx=0;exitDy=0;" edge="1" parent="WIyWlLk6GJQsqaUBKTNV-1" source="LsBEOl2nDuF0hXu2eeSG-87" target="LsBEOl2nDuF0hXu2eeSG-92">
          <mxGeometry relative="1" as="geometry">
            <mxPoint x="108.5" y="1350" as="targetPoint" />
          </mxGeometry>
        </mxCell>
        <mxCell id="LsBEOl2nDuF0hXu2eeSG-90" value="yes" style="edgeLabel;html=1;align=center;verticalAlign=middle;resizable=0;points=[];" vertex="1" connectable="0" parent="LsBEOl2nDuF0hXu2eeSG-89">
          <mxGeometry x="0.1034" y="-3" relative="1" as="geometry">
            <mxPoint as="offset" />
          </mxGeometry>
        </mxCell>
        <mxCell id="LsBEOl2nDuF0hXu2eeSG-95" style="edgeStyle=orthogonalEdgeStyle;rounded=0;orthogonalLoop=1;jettySize=auto;html=1;exitX=1;exitY=0.5;exitDx=0;exitDy=0;" edge="1" parent="WIyWlLk6GJQsqaUBKTNV-1" source="LsBEOl2nDuF0hXu2eeSG-87" target="LsBEOl2nDuF0hXu2eeSG-96">
          <mxGeometry relative="1" as="geometry">
            <mxPoint x="450" y="1229.6666666666667" as="targetPoint" />
          </mxGeometry>
        </mxCell>
        <mxCell id="LsBEOl2nDuF0hXu2eeSG-98" value="no" style="edgeLabel;html=1;align=center;verticalAlign=middle;resizable=0;points=[];" vertex="1" connectable="0" parent="LsBEOl2nDuF0hXu2eeSG-95">
          <mxGeometry x="0.0526" y="-2" relative="1" as="geometry">
            <mxPoint x="-1" as="offset" />
          </mxGeometry>
        </mxCell>
        <mxCell id="LsBEOl2nDuF0hXu2eeSG-87" value="menu = 1" style="rhombus;whiteSpace=wrap;html=1;" vertex="1" parent="WIyWlLk6GJQsqaUBKTNV-1">
          <mxGeometry x="68.5" y="1200" width="80" height="80" as="geometry" />
        </mxCell>
        <mxCell id="LsBEOl2nDuF0hXu2eeSG-91" value="" style="shape=flexArrow;endArrow=classic;html=1;rounded=0;" edge="1" parent="WIyWlLk6GJQsqaUBKTNV-1">
          <mxGeometry width="50" height="50" relative="1" as="geometry">
            <mxPoint x="350" y="970" as="sourcePoint" />
            <mxPoint x="390" y="970" as="targetPoint" />
          </mxGeometry>
        </mxCell>
        <mxCell id="LsBEOl2nDuF0hXu2eeSG-93" style="edgeStyle=orthogonalEdgeStyle;rounded=0;orthogonalLoop=1;jettySize=auto;html=1;" edge="1" parent="WIyWlLk6GJQsqaUBKTNV-1" source="LsBEOl2nDuF0hXu2eeSG-92" target="LsBEOl2nDuF0hXu2eeSG-94">
          <mxGeometry relative="1" as="geometry">
            <mxPoint x="108.5" y="1500" as="targetPoint" />
          </mxGeometry>
        </mxCell>
        <mxCell id="LsBEOl2nDuF0hXu2eeSG-92" value="menu&lt;div&gt;A. 5JT, 2%, 5BLN&lt;/div&gt;&lt;div&gt;B. 10JT, 4%, 10 BLN&lt;/div&gt;&lt;div&gt;C. 20JT, 6%, 12 BULAN&lt;/div&gt;" style="rounded=0;whiteSpace=wrap;html=1;" vertex="1" parent="WIyWlLk6GJQsqaUBKTNV-1">
          <mxGeometry x="40" y="1350" width="137" height="90" as="geometry" />
        </mxCell>
        <mxCell id="LsBEOl2nDuF0hXu2eeSG-99" style="edgeStyle=orthogonalEdgeStyle;rounded=0;orthogonalLoop=1;jettySize=auto;html=1;exitX=0.5;exitY=1;exitDx=0;exitDy=0;" edge="1" parent="WIyWlLk6GJQsqaUBKTNV-1" source="LsBEOl2nDuF0hXu2eeSG-94" target="LsBEOl2nDuF0hXu2eeSG-100">
          <mxGeometry relative="1" as="geometry">
            <mxPoint x="109.16666666666674" y="1600" as="targetPoint" />
          </mxGeometry>
        </mxCell>
        <mxCell id="LsBEOl2nDuF0hXu2eeSG-94" value="Pokok + (pokok * bunga) ^ lama" style="rounded=0;whiteSpace=wrap;html=1;" vertex="1" parent="WIyWlLk6GJQsqaUBKTNV-1">
          <mxGeometry x="48.5" y="1490" width="120" height="60" as="geometry" />
        </mxCell>
        <mxCell id="LsBEOl2nDuF0hXu2eeSG-97" style="edgeStyle=orthogonalEdgeStyle;rounded=0;orthogonalLoop=1;jettySize=auto;html=1;exitX=0.5;exitY=1;exitDx=0;exitDy=0;" edge="1" parent="WIyWlLk6GJQsqaUBKTNV-1" source="LsBEOl2nDuF0hXu2eeSG-96" target="LsBEOl2nDuF0hXu2eeSG-102">
          <mxGeometry relative="1" as="geometry">
            <mxPoint x="279.67666666666656" y="1350" as="targetPoint" />
          </mxGeometry>
        </mxCell>
        <mxCell id="LsBEOl2nDuF0hXu2eeSG-119" value="yes" style="edgeLabel;html=1;align=center;verticalAlign=middle;resizable=0;points=[];" vertex="1" connectable="0" parent="LsBEOl2nDuF0hXu2eeSG-97">
          <mxGeometry x="-0.1142" y="-4" relative="1" as="geometry">
            <mxPoint as="offset" />
          </mxGeometry>
        </mxCell>
        <mxCell id="LsBEOl2nDuF0hXu2eeSG-116" style="edgeStyle=orthogonalEdgeStyle;rounded=0;orthogonalLoop=1;jettySize=auto;html=1;exitX=1;exitY=0.5;exitDx=0;exitDy=0;" edge="1" parent="WIyWlLk6GJQsqaUBKTNV-1" source="LsBEOl2nDuF0hXu2eeSG-96" target="LsBEOl2nDuF0hXu2eeSG-118">
          <mxGeometry relative="1" as="geometry">
            <mxPoint x="371.68" y="1239.9966666666667" as="targetPoint" />
          </mxGeometry>
        </mxCell>
        <mxCell id="LsBEOl2nDuF0hXu2eeSG-120" value="no" style="edgeLabel;html=1;align=center;verticalAlign=middle;resizable=0;points=[];" vertex="1" connectable="0" parent="LsBEOl2nDuF0hXu2eeSG-116">
          <mxGeometry x="-0.3669" y="1" relative="1" as="geometry">
            <mxPoint as="offset" />
          </mxGeometry>
        </mxCell>
        <mxCell id="LsBEOl2nDuF0hXu2eeSG-96" value="menu=2" style="rhombus;whiteSpace=wrap;html=1;" vertex="1" parent="WIyWlLk6GJQsqaUBKTNV-1">
          <mxGeometry x="240.01000000000005" y="1199.9966666666667" width="80" height="80" as="geometry" />
        </mxCell>
        <mxCell id="LsBEOl2nDuF0hXu2eeSG-159" style="edgeStyle=orthogonalEdgeStyle;rounded=0;orthogonalLoop=1;jettySize=auto;html=1;exitX=0.5;exitY=1;exitDx=0;exitDy=0;" edge="1" parent="WIyWlLk6GJQsqaUBKTNV-1" source="LsBEOl2nDuF0hXu2eeSG-100">
          <mxGeometry relative="1" as="geometry">
            <mxPoint x="108.33333333333337" y="1790" as="targetPoint" />
          </mxGeometry>
        </mxCell>
        <mxCell id="LsBEOl2nDuF0hXu2eeSG-100" value="angsuran bulanan &amp;amp; total angsuran" style="rounded=1;whiteSpace=wrap;html=1;" vertex="1" parent="WIyWlLk6GJQsqaUBKTNV-1">
          <mxGeometry x="48.49666666666673" y="1590" width="120" height="60" as="geometry" />
        </mxCell>
        <mxCell id="LsBEOl2nDuF0hXu2eeSG-101" value="" style="shape=flexArrow;endArrow=classic;html=1;rounded=0;" edge="1" parent="WIyWlLk6GJQsqaUBKTNV-1">
          <mxGeometry width="50" height="50" relative="1" as="geometry">
            <mxPoint x="168.5" y="1630" as="sourcePoint" />
            <mxPoint x="208.5" y="1630" as="targetPoint" />
          </mxGeometry>
        </mxCell>
        <mxCell id="LsBEOl2nDuF0hXu2eeSG-104" style="edgeStyle=orthogonalEdgeStyle;rounded=0;orthogonalLoop=1;jettySize=auto;html=1;exitX=0.5;exitY=1;exitDx=0;exitDy=0;" edge="1" parent="WIyWlLk6GJQsqaUBKTNV-1" source="LsBEOl2nDuF0hXu2eeSG-102" target="LsBEOl2nDuF0hXu2eeSG-105">
          <mxGeometry relative="1" as="geometry">
            <mxPoint x="280.67666666666656" y="1480" as="targetPoint" />
          </mxGeometry>
        </mxCell>
        <mxCell id="LsBEOl2nDuF0hXu2eeSG-133" value="yes" style="edgeLabel;html=1;align=center;verticalAlign=middle;resizable=0;points=[];" vertex="1" connectable="0" parent="LsBEOl2nDuF0hXu2eeSG-104">
          <mxGeometry x="-0.0796" relative="1" as="geometry">
            <mxPoint as="offset" />
          </mxGeometry>
        </mxCell>
        <mxCell id="LsBEOl2nDuF0hXu2eeSG-102" value="masukan jenis&amp;nbsp;" style="rounded=1;whiteSpace=wrap;html=1;" vertex="1" parent="WIyWlLk6GJQsqaUBKTNV-1">
          <mxGeometry x="225.01000000000005" y="1350" width="110" height="50" as="geometry" />
        </mxCell>
        <mxCell id="LsBEOl2nDuF0hXu2eeSG-103" value="" style="shape=flexArrow;endArrow=classic;html=1;rounded=0;" edge="1" parent="WIyWlLk6GJQsqaUBKTNV-1">
          <mxGeometry width="50" height="50" relative="1" as="geometry">
            <mxPoint x="185.01000000000005" y="1370" as="sourcePoint" />
            <mxPoint x="225.01000000000005" y="1370" as="targetPoint" />
          </mxGeometry>
        </mxCell>
        <mxCell id="LsBEOl2nDuF0hXu2eeSG-107" style="edgeStyle=orthogonalEdgeStyle;rounded=0;orthogonalLoop=1;jettySize=auto;html=1;exitX=0.5;exitY=1;exitDx=0;exitDy=0;" edge="1" parent="WIyWlLk6GJQsqaUBKTNV-1" source="LsBEOl2nDuF0hXu2eeSG-105" target="LsBEOl2nDuF0hXu2eeSG-112">
          <mxGeometry relative="1" as="geometry">
            <mxPoint x="280.67666666666656" y="1540" as="targetPoint" />
          </mxGeometry>
        </mxCell>
        <mxCell id="LsBEOl2nDuF0hXu2eeSG-105" value="masukan lama bulan" style="rounded=1;whiteSpace=wrap;html=1;" vertex="1" parent="WIyWlLk6GJQsqaUBKTNV-1">
          <mxGeometry x="220.67666666666656" y="1450" width="120" height="60" as="geometry" />
        </mxCell>
        <mxCell id="LsBEOl2nDuF0hXu2eeSG-106" value="" style="shape=flexArrow;endArrow=classic;html=1;rounded=0;" edge="1" parent="WIyWlLk6GJQsqaUBKTNV-1">
          <mxGeometry width="50" height="50" relative="1" as="geometry">
            <mxPoint x="179.99999999999994" y="1470" as="sourcePoint" />
            <mxPoint x="219.99999999999994" y="1470" as="targetPoint" />
          </mxGeometry>
        </mxCell>
        <mxCell id="LsBEOl2nDuF0hXu2eeSG-113" style="edgeStyle=orthogonalEdgeStyle;rounded=0;orthogonalLoop=1;jettySize=auto;html=1;exitX=0.5;exitY=1;exitDx=0;exitDy=0;" edge="1" parent="WIyWlLk6GJQsqaUBKTNV-1" source="LsBEOl2nDuF0hXu2eeSG-112" target="LsBEOl2nDuF0hXu2eeSG-114">
          <mxGeometry relative="1" as="geometry">
            <mxPoint x="279.34333333333353" y="1660" as="targetPoint" />
          </mxGeometry>
        </mxCell>
        <mxCell id="LsBEOl2nDuF0hXu2eeSG-112" value="Proses pengecekan dan perhitungan pembayaran" style="rounded=0;whiteSpace=wrap;html=1;" vertex="1" parent="WIyWlLk6GJQsqaUBKTNV-1">
          <mxGeometry x="220.0066666666666" y="1550" width="120" height="60" as="geometry" />
        </mxCell>
        <mxCell id="LsBEOl2nDuF0hXu2eeSG-157" style="edgeStyle=orthogonalEdgeStyle;rounded=0;orthogonalLoop=1;jettySize=auto;html=1;exitX=0.5;exitY=1;exitDx=0;exitDy=0;" edge="1" parent="WIyWlLk6GJQsqaUBKTNV-1" source="LsBEOl2nDuF0hXu2eeSG-114">
          <mxGeometry relative="1" as="geometry">
            <mxPoint x="730" y="1680" as="targetPoint" />
          </mxGeometry>
        </mxCell>
        <mxCell id="LsBEOl2nDuF0hXu2eeSG-114" value="Pembayaran anda berhasil!" style="rounded=1;whiteSpace=wrap;html=1;" vertex="1" parent="WIyWlLk6GJQsqaUBKTNV-1">
          <mxGeometry x="220.00333333333361" y="1660" width="120" height="60" as="geometry" />
        </mxCell>
        <mxCell id="LsBEOl2nDuF0hXu2eeSG-115" value="" style="shape=flexArrow;endArrow=classic;html=1;rounded=0;" edge="1" parent="WIyWlLk6GJQsqaUBKTNV-1">
          <mxGeometry width="50" height="50" relative="1" as="geometry">
            <mxPoint x="340.68" y="1700" as="sourcePoint" />
            <mxPoint x="380.68" y="1700" as="targetPoint" />
          </mxGeometry>
        </mxCell>
        <mxCell id="LsBEOl2nDuF0hXu2eeSG-121" style="edgeStyle=orthogonalEdgeStyle;rounded=0;orthogonalLoop=1;jettySize=auto;html=1;exitX=0.5;exitY=1;exitDx=0;exitDy=0;" edge="1" parent="WIyWlLk6GJQsqaUBKTNV-1" source="LsBEOl2nDuF0hXu2eeSG-118" target="LsBEOl2nDuF0hXu2eeSG-124">
          <mxGeometry relative="1" as="geometry">
            <mxPoint x="420.33333333333326" y="1340" as="targetPoint" />
          </mxGeometry>
        </mxCell>
        <mxCell id="LsBEOl2nDuF0hXu2eeSG-122" value="yes" style="edgeLabel;html=1;align=center;verticalAlign=middle;resizable=0;points=[];" vertex="1" connectable="0" parent="LsBEOl2nDuF0hXu2eeSG-121">
          <mxGeometry x="-0.1998" y="-4" relative="1" as="geometry">
            <mxPoint as="offset" />
          </mxGeometry>
        </mxCell>
        <mxCell id="LsBEOl2nDuF0hXu2eeSG-140" style="edgeStyle=orthogonalEdgeStyle;rounded=0;orthogonalLoop=1;jettySize=auto;html=1;exitX=1;exitY=0.5;exitDx=0;exitDy=0;" edge="1" parent="WIyWlLk6GJQsqaUBKTNV-1" source="LsBEOl2nDuF0hXu2eeSG-118" target="LsBEOl2nDuF0hXu2eeSG-145">
          <mxGeometry relative="1" as="geometry">
            <mxPoint x="620" y="1240" as="targetPoint" />
          </mxGeometry>
        </mxCell>
        <mxCell id="LsBEOl2nDuF0hXu2eeSG-141" value="no" style="edgeLabel;html=1;align=center;verticalAlign=middle;resizable=0;points=[];" vertex="1" connectable="0" parent="LsBEOl2nDuF0hXu2eeSG-140">
          <mxGeometry x="-0.0299" y="-5" relative="1" as="geometry">
            <mxPoint as="offset" />
          </mxGeometry>
        </mxCell>
        <mxCell id="LsBEOl2nDuF0hXu2eeSG-118" value="menu =3" style="rhombus;whiteSpace=wrap;html=1;" vertex="1" parent="WIyWlLk6GJQsqaUBKTNV-1">
          <mxGeometry x="380.00000000000006" y="1199.9966666666667" width="80" height="80" as="geometry" />
        </mxCell>
        <mxCell id="LsBEOl2nDuF0hXu2eeSG-125" style="edgeStyle=orthogonalEdgeStyle;rounded=0;orthogonalLoop=1;jettySize=auto;html=1;exitX=0.5;exitY=1;exitDx=0;exitDy=0;" edge="1" parent="WIyWlLk6GJQsqaUBKTNV-1" source="LsBEOl2nDuF0hXu2eeSG-124" target="LsBEOl2nDuF0hXu2eeSG-129">
          <mxGeometry relative="1" as="geometry">
            <mxPoint x="420.00333333333333" y="1450" as="targetPoint" />
          </mxGeometry>
        </mxCell>
        <mxCell id="LsBEOl2nDuF0hXu2eeSG-124" value="proses pengecekan" style="rounded=0;whiteSpace=wrap;html=1;" vertex="1" parent="WIyWlLk6GJQsqaUBKTNV-1">
          <mxGeometry x="360.0033333333333" y="1345" width="120" height="60" as="geometry" />
        </mxCell>
        <mxCell id="LsBEOl2nDuF0hXu2eeSG-130" style="edgeStyle=orthogonalEdgeStyle;rounded=0;orthogonalLoop=1;jettySize=auto;html=1;exitX=0.5;exitY=1;exitDx=0;exitDy=0;" edge="1" parent="WIyWlLk6GJQsqaUBKTNV-1" source="LsBEOl2nDuF0hXu2eeSG-129" target="LsBEOl2nDuF0hXu2eeSG-131">
          <mxGeometry relative="1" as="geometry">
            <mxPoint x="420" y="1590" as="targetPoint" />
          </mxGeometry>
        </mxCell>
        <mxCell id="LsBEOl2nDuF0hXu2eeSG-134" value="yes" style="edgeLabel;html=1;align=center;verticalAlign=middle;resizable=0;points=[];" vertex="1" connectable="0" parent="LsBEOl2nDuF0hXu2eeSG-130">
          <mxGeometry x="-0.8167" relative="1" as="geometry">
            <mxPoint as="offset" />
          </mxGeometry>
        </mxCell>
        <mxCell id="LsBEOl2nDuF0hXu2eeSG-136" style="edgeStyle=orthogonalEdgeStyle;rounded=0;orthogonalLoop=1;jettySize=auto;html=1;exitX=1;exitY=0.5;exitDx=0;exitDy=0;" edge="1" parent="WIyWlLk6GJQsqaUBKTNV-1" source="LsBEOl2nDuF0hXu2eeSG-129" target="LsBEOl2nDuF0hXu2eeSG-138">
          <mxGeometry relative="1" as="geometry">
            <mxPoint x="520" y="1489.6666666666665" as="targetPoint" />
          </mxGeometry>
        </mxCell>
        <mxCell id="LsBEOl2nDuF0hXu2eeSG-137" value="no" style="edgeLabel;html=1;align=center;verticalAlign=middle;resizable=0;points=[];" vertex="1" connectable="0" parent="LsBEOl2nDuF0hXu2eeSG-136">
          <mxGeometry x="-0.2354" y="3" relative="1" as="geometry">
            <mxPoint as="offset" />
          </mxGeometry>
        </mxCell>
        <mxCell id="LsBEOl2nDuF0hXu2eeSG-129" value="Lama &amp;lt;= 0" style="rhombus;whiteSpace=wrap;html=1;" vertex="1" parent="WIyWlLk6GJQsqaUBKTNV-1">
          <mxGeometry x="380.00333333333333" y="1450" width="80" height="80" as="geometry" />
        </mxCell>
        <mxCell id="LsBEOl2nDuF0hXu2eeSG-131" value="cicilan anda sudah lunas" style="rounded=1;whiteSpace=wrap;html=1;" vertex="1" parent="WIyWlLk6GJQsqaUBKTNV-1">
          <mxGeometry x="365" y="1570" width="110" height="50" as="geometry" />
        </mxCell>
        <mxCell id="LsBEOl2nDuF0hXu2eeSG-135" value="" style="shape=flexArrow;endArrow=classic;html=1;rounded=0;" edge="1" parent="WIyWlLk6GJQsqaUBKTNV-1">
          <mxGeometry width="50" height="50" relative="1" as="geometry">
            <mxPoint x="475" y="1608.67" as="sourcePoint" />
            <mxPoint x="515" y="1608.67" as="targetPoint" />
          </mxGeometry>
        </mxCell>
        <mxCell id="LsBEOl2nDuF0hXu2eeSG-138" value="menampilkan sisa cicilan" style="rounded=1;whiteSpace=wrap;html=1;" vertex="1" parent="WIyWlLk6GJQsqaUBKTNV-1">
          <mxGeometry x="490" y="1465" width="110" height="50" as="geometry" />
        </mxCell>
        <mxCell id="LsBEOl2nDuF0hXu2eeSG-139" value="" style="shape=flexArrow;endArrow=classic;html=1;rounded=0;" edge="1" parent="WIyWlLk6GJQsqaUBKTNV-1">
          <mxGeometry width="50" height="50" relative="1" as="geometry">
            <mxPoint x="600" y="1500" as="sourcePoint" />
            <mxPoint x="640" y="1500" as="targetPoint" />
          </mxGeometry>
        </mxCell>
        <mxCell id="LsBEOl2nDuF0hXu2eeSG-146" style="edgeStyle=orthogonalEdgeStyle;rounded=0;orthogonalLoop=1;jettySize=auto;html=1;exitX=0.5;exitY=1;exitDx=0;exitDy=0;" edge="1" parent="WIyWlLk6GJQsqaUBKTNV-1" source="LsBEOl2nDuF0hXu2eeSG-145" target="LsBEOl2nDuF0hXu2eeSG-148">
          <mxGeometry relative="1" as="geometry">
            <mxPoint x="620" y="1340" as="targetPoint" />
          </mxGeometry>
        </mxCell>
        <mxCell id="LsBEOl2nDuF0hXu2eeSG-145" value="menu = 4" style="rhombus;whiteSpace=wrap;html=1;" vertex="1" parent="WIyWlLk6GJQsqaUBKTNV-1">
          <mxGeometry x="580" y="1200" width="80" height="80" as="geometry" />
        </mxCell>
        <mxCell id="LsBEOl2nDuF0hXu2eeSG-149" style="edgeStyle=orthogonalEdgeStyle;rounded=0;orthogonalLoop=1;jettySize=auto;html=1;exitX=0.5;exitY=1;exitDx=0;exitDy=0;" edge="1" parent="WIyWlLk6GJQsqaUBKTNV-1" source="LsBEOl2nDuF0hXu2eeSG-148" target="LsBEOl2nDuF0hXu2eeSG-150">
          <mxGeometry relative="1" as="geometry">
            <mxPoint x="700" y="1500" as="targetPoint" />
          </mxGeometry>
        </mxCell>
        <mxCell id="LsBEOl2nDuF0hXu2eeSG-151" value="yes" style="edgeLabel;html=1;align=center;verticalAlign=middle;resizable=0;points=[];" vertex="1" connectable="0" parent="LsBEOl2nDuF0hXu2eeSG-149">
          <mxGeometry x="-0.1769" y="-3" relative="1" as="geometry">
            <mxPoint as="offset" />
          </mxGeometry>
        </mxCell>
        <mxCell id="LsBEOl2nDuF0hXu2eeSG-152" style="edgeStyle=orthogonalEdgeStyle;rounded=0;orthogonalLoop=1;jettySize=auto;html=1;exitX=1;exitY=0.5;exitDx=0;exitDy=0;" edge="1" parent="WIyWlLk6GJQsqaUBKTNV-1" source="LsBEOl2nDuF0hXu2eeSG-148">
          <mxGeometry relative="1" as="geometry">
            <mxPoint x="750" y="990" as="targetPoint" />
          </mxGeometry>
        </mxCell>
        <mxCell id="LsBEOl2nDuF0hXu2eeSG-154" value="no" style="edgeLabel;html=1;align=center;verticalAlign=middle;resizable=0;points=[];" vertex="1" connectable="0" parent="LsBEOl2nDuF0hXu2eeSG-152">
          <mxGeometry x="-0.8754" y="1" relative="1" as="geometry">
            <mxPoint as="offset" />
          </mxGeometry>
        </mxCell>
        <mxCell id="LsBEOl2nDuF0hXu2eeSG-148" value="apakah yakin" style="rhombus;whiteSpace=wrap;html=1;" vertex="1" parent="WIyWlLk6GJQsqaUBKTNV-1">
          <mxGeometry x="580" y="1325" width="80" height="80" as="geometry" />
        </mxCell>
        <mxCell id="LsBEOl2nDuF0hXu2eeSG-150" value="END" style="ellipse;whiteSpace=wrap;html=1;" vertex="1" parent="WIyWlLk6GJQsqaUBKTNV-1">
          <mxGeometry x="660" y="1520" width="120" height="80" as="geometry" />
        </mxCell>
        <mxCell id="LsBEOl2nDuF0hXu2eeSG-153" value="" style="endArrow=classic;html=1;rounded=0;" edge="1" parent="WIyWlLk6GJQsqaUBKTNV-1">
          <mxGeometry width="50" height="50" relative="1" as="geometry">
            <mxPoint x="750" y="990" as="sourcePoint" />
            <mxPoint x="540" y="990" as="targetPoint" />
          </mxGeometry>
        </mxCell>
        <mxCell id="LsBEOl2nDuF0hXu2eeSG-156" style="edgeStyle=orthogonalEdgeStyle;rounded=0;orthogonalLoop=1;jettySize=auto;html=1;exitX=0.5;exitY=1;exitDx=0;exitDy=0;entryX=0.575;entryY=1.046;entryDx=0;entryDy=0;entryPerimeter=0;" edge="1" parent="WIyWlLk6GJQsqaUBKTNV-1" source="LsBEOl2nDuF0hXu2eeSG-131" target="LsBEOl2nDuF0hXu2eeSG-150">
          <mxGeometry relative="1" as="geometry">
            <Array as="points">
              <mxPoint x="420" y="1680" />
              <mxPoint x="729" y="1680" />
            </Array>
          </mxGeometry>
        </mxCell>
        <mxCell id="LsBEOl2nDuF0hXu2eeSG-160" value="" style="endArrow=classic;html=1;rounded=0;" edge="1" parent="WIyWlLk6GJQsqaUBKTNV-1">
          <mxGeometry width="50" height="50" relative="1" as="geometry">
            <mxPoint x="110" y="1790" as="sourcePoint" />
            <mxPoint x="730" y="1790" as="targetPoint" />
          </mxGeometry>
        </mxCell>
        <mxCell id="LsBEOl2nDuF0hXu2eeSG-162" value="" style="endArrow=classic;html=1;rounded=0;" edge="1" parent="WIyWlLk6GJQsqaUBKTNV-1">
          <mxGeometry width="50" height="50" relative="1" as="geometry">
            <mxPoint x="720" y="1790" as="sourcePoint" />
            <mxPoint x="720" y="1690" as="targetPoint" />
          </mxGeometry>
        </mxCell>
      </root>
    </mxGraphModel>
  </diagram>
</mxfile>
